<mxfile host="app.diagrams.net" agent="Mozilla/5.0 (X11; Ubuntu; Linux x86_64; rv:130.0) Gecko/20100101 Firefox/130.0" version="24.7.14">
  <diagram name="Page-1" id="r_NMhFgIk7wO-2sY05BS">
    <mxGraphModel dx="1434" dy="796" grid="1" gridSize="10" guides="1" tooltips="1" connect="1" arrows="1" fold="1" page="1" pageScale="1" pageWidth="827" pageHeight="1169" math="0" shadow="0">
      <root>
        <mxCell id="0" />
        <mxCell id="1" parent="0" />
        <mxCell id="qCB8tKFfeQziCLTWK84A-1" value="" style="whiteSpace=wrap;html=1;movable=1;resizable=1;rotatable=1;deletable=1;editable=1;locked=0;connectable=1;fillColor=none;" parent="1" vertex="1">
          <mxGeometry x="179" y="30" width="469" height="1070" as="geometry" />
        </mxCell>
        <mxCell id="qCB8tKFfeQziCLTWK84A-6" value="Client" style="shape=umlActor;verticalLabelPosition=bottom;verticalAlign=top;html=1;outlineConnect=0;" parent="1" vertex="1">
          <mxGeometry x="50" y="931" width="50" height="110" as="geometry" />
        </mxCell>
        <mxCell id="qCB8tKFfeQziCLTWK84A-7" value="Gérant/Secrétaire" style="shape=umlActor;verticalLabelPosition=bottom;verticalAlign=top;html=1;outlineConnect=0;" parent="1" vertex="1">
          <mxGeometry x="50" y="330" width="50" height="110" as="geometry" />
        </mxCell>
        <mxCell id="qCB8tKFfeQziCLTWK84A-8" value="Visiteur" style="shape=umlActor;verticalLabelPosition=bottom;verticalAlign=top;html=1;outlineConnect=0;" parent="1" vertex="1">
          <mxGeometry x="50" y="85" width="50" height="110" as="geometry" />
        </mxCell>
        <mxCell id="qCB8tKFfeQziCLTWK84A-11" value="Gérer les emplois du temps" style="ellipse;whiteSpace=wrap;html=1;" parent="1" vertex="1">
          <mxGeometry x="280" y="370" width="200" height="80" as="geometry" />
        </mxCell>
        <mxCell id="qCB8tKFfeQziCLTWK84A-12" value="Gérer l&#39;emploi du temps des poneys" style="ellipse;whiteSpace=wrap;html=1;" parent="1" vertex="1">
          <mxGeometry x="280" y="280" width="200" height="80" as="geometry" />
        </mxCell>
        <mxCell id="qCB8tKFfeQziCLTWK84A-13" value="Se connecter/ Se déconnecter" style="ellipse;whiteSpace=wrap;html=1;" parent="1" vertex="1">
          <mxGeometry x="320" y="715" width="120" height="80" as="geometry" />
        </mxCell>
        <mxCell id="qCB8tKFfeQziCLTWK84A-14" value="S&#39;inscrire" style="ellipse;whiteSpace=wrap;html=1;" parent="1" vertex="1">
          <mxGeometry x="295" y="100" width="170" height="80" as="geometry" />
        </mxCell>
        <mxCell id="qCB8tKFfeQziCLTWK84A-15" value="Réserver un cours" style="ellipse;whiteSpace=wrap;html=1;" parent="1" vertex="1">
          <mxGeometry x="320" y="946" width="120" height="80" as="geometry" />
        </mxCell>
        <mxCell id="qCB8tKFfeQziCLTWK84A-19" value="" style="endArrow=none;html=1;rounded=0;" parent="1" source="qCB8tKFfeQziCLTWK84A-8" target="qCB8tKFfeQziCLTWK84A-14" edge="1">
          <mxGeometry width="50" height="50" relative="1" as="geometry">
            <mxPoint x="-130" y="750" as="sourcePoint" />
            <mxPoint x="-80" y="700" as="targetPoint" />
          </mxGeometry>
        </mxCell>
        <mxCell id="qCB8tKFfeQziCLTWK84A-22" value="" style="endArrow=none;html=1;rounded=0;" parent="1" source="qCB8tKFfeQziCLTWK84A-6" target="qCB8tKFfeQziCLTWK84A-15" edge="1">
          <mxGeometry width="50" height="50" relative="1" as="geometry">
            <mxPoint x="110" y="784" as="sourcePoint" />
            <mxPoint x="370" y="773" as="targetPoint" />
          </mxGeometry>
        </mxCell>
        <mxCell id="qCB8tKFfeQziCLTWK84A-23" value="" style="endArrow=none;html=1;rounded=0;" parent="1" source="qCB8tKFfeQziCLTWK84A-7" target="qCB8tKFfeQziCLTWK84A-13" edge="1">
          <mxGeometry width="50" height="50" relative="1" as="geometry">
            <mxPoint x="110" y="484" as="sourcePoint" />
            <mxPoint x="370" y="473" as="targetPoint" />
          </mxGeometry>
        </mxCell>
        <mxCell id="qCB8tKFfeQziCLTWK84A-24" value="" style="endArrow=none;html=1;rounded=0;" parent="1" source="qCB8tKFfeQziCLTWK84A-7" target="qCB8tKFfeQziCLTWK84A-11" edge="1">
          <mxGeometry width="50" height="50" relative="1" as="geometry">
            <mxPoint x="110" y="280" as="sourcePoint" />
            <mxPoint x="385" y="443" as="targetPoint" />
          </mxGeometry>
        </mxCell>
        <mxCell id="qCB8tKFfeQziCLTWK84A-25" value="" style="endArrow=none;html=1;rounded=0;" parent="1" source="qCB8tKFfeQziCLTWK84A-43" target="qCB8tKFfeQziCLTWK84A-13" edge="1">
          <mxGeometry width="50" height="50" relative="1" as="geometry">
            <mxPoint x="50" y="630" as="sourcePoint" />
            <mxPoint x="277" y="680" as="targetPoint" />
          </mxGeometry>
        </mxCell>
        <mxCell id="qCB8tKFfeQziCLTWK84A-26" value="" style="endArrow=none;html=1;rounded=0;" parent="1" source="qCB8tKFfeQziCLTWK84A-7" target="qCB8tKFfeQziCLTWK84A-12" edge="1">
          <mxGeometry width="50" height="50" relative="1" as="geometry">
            <mxPoint x="68" y="200" as="sourcePoint" />
            <mxPoint x="314" y="95" as="targetPoint" />
          </mxGeometry>
        </mxCell>
        <mxCell id="qCB8tKFfeQziCLTWK84A-27" value="Grand Galop" style="text;html=1;align=center;verticalAlign=middle;whiteSpace=wrap;rounded=0;fontSize=25;fontStyle=0" parent="1" vertex="1">
          <mxGeometry x="319" y="50" width="190" height="30" as="geometry" />
        </mxCell>
        <mxCell id="qCB8tKFfeQziCLTWK84A-28" value="Doit avoir l&#39;aval du gérant pour finaliser l&quot;inscription afin de gérer les inscriptions et les invalidés" style="shape=note2;boundedLbl=1;whiteSpace=wrap;html=1;size=25;verticalAlign=top;align=center;" parent="1" vertex="1">
          <mxGeometry x="570" y="85" width="220" height="110" as="geometry" />
        </mxCell>
        <mxCell id="qCB8tKFfeQziCLTWK84A-29" value="Finalisation Inscription" style="resizeWidth=1;part=1;strokeColor=none;fillColor=none;align=left;spacingLeft=5;" parent="qCB8tKFfeQziCLTWK84A-28" vertex="1">
          <mxGeometry width="220" height="25" relative="1" as="geometry" />
        </mxCell>
        <mxCell id="qCB8tKFfeQziCLTWK84A-30" value="" style="endArrow=none;dashed=1;html=1;dashPattern=1 3;strokeWidth=2;rounded=0;" parent="1" source="qCB8tKFfeQziCLTWK84A-14" target="qCB8tKFfeQziCLTWK84A-28" edge="1">
          <mxGeometry width="50" height="50" relative="1" as="geometry">
            <mxPoint x="-50" y="720" as="sourcePoint" />
            <mxPoint y="670" as="targetPoint" />
          </mxGeometry>
        </mxCell>
        <mxCell id="qCB8tKFfeQziCLTWK84A-31" value="Sélection un cours particulier" style="ellipse;whiteSpace=wrap;html=1;" parent="1" vertex="1">
          <mxGeometry x="510" y="900" width="120" height="80" as="geometry" />
        </mxCell>
        <mxCell id="qCB8tKFfeQziCLTWK84A-32" value="Sélectionner un cours collectif" style="ellipse;whiteSpace=wrap;html=1;" parent="1" vertex="1">
          <mxGeometry x="509" y="996" width="120" height="80" as="geometry" />
        </mxCell>
        <mxCell id="qCB8tKFfeQziCLTWK84A-35" value="" style="endArrow=block;html=1;rounded=0;endFill=0;" parent="1" source="qCB8tKFfeQziCLTWK84A-32" target="qCB8tKFfeQziCLTWK84A-15" edge="1">
          <mxGeometry width="50" height="50" relative="1" as="geometry">
            <mxPoint x="286" y="1006" as="sourcePoint" />
            <mxPoint x="336" y="956" as="targetPoint" />
          </mxGeometry>
        </mxCell>
        <mxCell id="qCB8tKFfeQziCLTWK84A-36" value="" style="endArrow=block;html=1;rounded=0;endFill=0;" parent="1" source="qCB8tKFfeQziCLTWK84A-31" target="qCB8tKFfeQziCLTWK84A-15" edge="1">
          <mxGeometry width="50" height="50" relative="1" as="geometry">
            <mxPoint x="501" y="930" as="sourcePoint" />
            <mxPoint x="445" y="913" as="targetPoint" />
          </mxGeometry>
        </mxCell>
        <mxCell id="qCB8tKFfeQziCLTWK84A-37" value="Base de Données" style="shape=umlActor;verticalLabelPosition=bottom;verticalAlign=top;html=1;outlineConnect=0;" parent="1" vertex="1">
          <mxGeometry x="750" y="370" width="50" height="110" as="geometry" />
        </mxCell>
        <mxCell id="qCB8tKFfeQziCLTWK84A-38" value="" style="endArrow=none;html=1;rounded=0;" parent="1" source="qCB8tKFfeQziCLTWK84A-12" target="qCB8tKFfeQziCLTWK84A-37" edge="1">
          <mxGeometry width="50" height="50" relative="1" as="geometry">
            <mxPoint x="560" y="260" as="sourcePoint" />
            <mxPoint x="610" y="210" as="targetPoint" />
          </mxGeometry>
        </mxCell>
        <mxCell id="qCB8tKFfeQziCLTWK84A-40" value="" style="endArrow=none;html=1;rounded=0;" parent="1" source="qCB8tKFfeQziCLTWK84A-11" target="qCB8tKFfeQziCLTWK84A-37" edge="1">
          <mxGeometry width="50" height="50" relative="1" as="geometry">
            <mxPoint x="466" y="213" as="sourcePoint" />
            <mxPoint x="700" y="278" as="targetPoint" />
          </mxGeometry>
        </mxCell>
        <mxCell id="qCB8tKFfeQziCLTWK84A-41" value="" style="endArrow=none;html=1;rounded=0;" parent="1" source="qCB8tKFfeQziCLTWK84A-13" target="qCB8tKFfeQziCLTWK84A-37" edge="1">
          <mxGeometry width="50" height="50" relative="1" as="geometry">
            <mxPoint x="482" y="303" as="sourcePoint" />
            <mxPoint x="700" y="287" as="targetPoint" />
          </mxGeometry>
        </mxCell>
        <mxCell id="qCB8tKFfeQziCLTWK84A-42" value="" style="endArrow=none;html=1;rounded=0;" parent="1" source="qCB8tKFfeQziCLTWK84A-15" target="qCB8tKFfeQziCLTWK84A-37" edge="1">
          <mxGeometry width="50" height="50" relative="1" as="geometry">
            <mxPoint x="435" y="409" as="sourcePoint" />
            <mxPoint x="700" y="296" as="targetPoint" />
          </mxGeometry>
        </mxCell>
        <mxCell id="qCB8tKFfeQziCLTWK84A-43" value="Moniteur" style="shape=umlActor;verticalLabelPosition=bottom;verticalAlign=top;html=1;outlineConnect=0;" parent="1" vertex="1">
          <mxGeometry x="50" y="680" width="50" height="110" as="geometry" />
        </mxCell>
        <mxCell id="qCB8tKFfeQziCLTWK84A-46" value="" style="endArrow=block;html=1;rounded=0;endFill=0;" parent="1" source="qCB8tKFfeQziCLTWK84A-6" target="qCB8tKFfeQziCLTWK84A-43" edge="1">
          <mxGeometry width="50" height="50" relative="1" as="geometry">
            <mxPoint x="10" y="600" as="sourcePoint" />
            <mxPoint x="60" y="550" as="targetPoint" />
          </mxGeometry>
        </mxCell>
        <mxCell id="qCB8tKFfeQziCLTWK84A-47" value="Consulter son emploi du temps" style="ellipse;whiteSpace=wrap;html=1;" parent="1" vertex="1">
          <mxGeometry x="280" y="801" width="200" height="80" as="geometry" />
        </mxCell>
        <mxCell id="qCB8tKFfeQziCLTWK84A-48" value="" style="endArrow=none;html=1;rounded=0;" parent="1" source="qCB8tKFfeQziCLTWK84A-47" target="qCB8tKFfeQziCLTWK84A-37" edge="1">
          <mxGeometry width="50" height="50" relative="1" as="geometry">
            <mxPoint x="421" y="548" as="sourcePoint" />
            <mxPoint x="700" y="307" as="targetPoint" />
          </mxGeometry>
        </mxCell>
        <mxCell id="qCB8tKFfeQziCLTWK84A-50" value="" style="endArrow=none;html=1;rounded=0;" parent="1" source="qCB8tKFfeQziCLTWK84A-43" target="qCB8tKFfeQziCLTWK84A-47" edge="1">
          <mxGeometry width="50" height="50" relative="1" as="geometry">
            <mxPoint x="110" y="619" as="sourcePoint" />
            <mxPoint x="325" y="651" as="targetPoint" />
          </mxGeometry>
        </mxCell>
        <mxCell id="qCB8tKFfeQziCLTWK84A-51" value="Créer un cours" style="ellipse;whiteSpace=wrap;html=1;" parent="1" vertex="1">
          <mxGeometry x="280" y="460" width="200" height="80" as="geometry" />
        </mxCell>
        <mxCell id="qCB8tKFfeQziCLTWK84A-52" value="" style="endArrow=none;html=1;rounded=0;" parent="1" source="qCB8tKFfeQziCLTWK84A-7" target="qCB8tKFfeQziCLTWK84A-51" edge="1">
          <mxGeometry width="50" height="50" relative="1" as="geometry">
            <mxPoint x="110" y="246" as="sourcePoint" />
            <mxPoint x="285" y="255" as="targetPoint" />
          </mxGeometry>
        </mxCell>
        <mxCell id="qCB8tKFfeQziCLTWK84A-53" value="" style="endArrow=none;html=1;rounded=0;" parent="1" source="qCB8tKFfeQziCLTWK84A-51" target="qCB8tKFfeQziCLTWK84A-37" edge="1">
          <mxGeometry width="50" height="50" relative="1" as="geometry">
            <mxPoint x="414" y="418" as="sourcePoint" />
            <mxPoint x="700" y="296" as="targetPoint" />
          </mxGeometry>
        </mxCell>
        <mxCell id="qCB8tKFfeQziCLTWK84A-54" value="" style="endArrow=none;html=1;rounded=0;" parent="1" source="qCB8tKFfeQziCLTWK84A-14" target="qCB8tKFfeQziCLTWK84A-7" edge="1">
          <mxGeometry width="50" height="50" relative="1" as="geometry">
            <mxPoint x="-150" y="540" as="sourcePoint" />
            <mxPoint x="-100" y="490" as="targetPoint" />
          </mxGeometry>
        </mxCell>
        <mxCell id="qCB8tKFfeQziCLTWK84A-55" value="" style="endArrow=none;html=1;rounded=0;" parent="1" source="qCB8tKFfeQziCLTWK84A-14" target="qCB8tKFfeQziCLTWK84A-37" edge="1">
          <mxGeometry width="50" height="50" relative="1" as="geometry">
            <mxPoint x="679" y="260" as="sourcePoint" />
            <mxPoint x="440" y="464" as="targetPoint" />
          </mxGeometry>
        </mxCell>
        <mxCell id="oVlMwGj3mWhTzkYAyB5C-1" value="Ajouter/Supprimer un poney" style="ellipse;whiteSpace=wrap;html=1;" vertex="1" parent="1">
          <mxGeometry x="315" y="190" width="150" height="80" as="geometry" />
        </mxCell>
        <mxCell id="oVlMwGj3mWhTzkYAyB5C-2" value="" style="endArrow=none;html=1;rounded=0;" edge="1" parent="1" source="oVlMwGj3mWhTzkYAyB5C-1" target="qCB8tKFfeQziCLTWK84A-7">
          <mxGeometry width="50" height="50" relative="1" as="geometry">
            <mxPoint x="347" y="184" as="sourcePoint" />
            <mxPoint x="110" y="375" as="targetPoint" />
          </mxGeometry>
        </mxCell>
        <mxCell id="oVlMwGj3mWhTzkYAyB5C-3" value="" style="endArrow=none;html=1;rounded=0;" edge="1" parent="1" source="qCB8tKFfeQziCLTWK84A-37" target="oVlMwGj3mWhTzkYAyB5C-1">
          <mxGeometry width="50" height="50" relative="1" as="geometry">
            <mxPoint x="845" y="200" as="sourcePoint" />
            <mxPoint x="610" y="316" as="targetPoint" />
          </mxGeometry>
        </mxCell>
        <mxCell id="oVlMwGj3mWhTzkYAyB5C-4" value="Supprimer un client" style="ellipse;whiteSpace=wrap;html=1;" vertex="1" parent="1">
          <mxGeometry x="280" y="560" width="200" height="80" as="geometry" />
        </mxCell>
        <mxCell id="oVlMwGj3mWhTzkYAyB5C-5" value="" style="endArrow=none;html=1;rounded=0;" edge="1" parent="1" source="oVlMwGj3mWhTzkYAyB5C-4" target="qCB8tKFfeQziCLTWK84A-37">
          <mxGeometry width="50" height="50" relative="1" as="geometry">
            <mxPoint x="480" y="493" as="sourcePoint" />
            <mxPoint x="760" y="440" as="targetPoint" />
          </mxGeometry>
        </mxCell>
        <mxCell id="oVlMwGj3mWhTzkYAyB5C-6" value="" style="endArrow=none;html=1;rounded=0;" edge="1" parent="1" source="qCB8tKFfeQziCLTWK84A-7" target="oVlMwGj3mWhTzkYAyB5C-4">
          <mxGeometry width="50" height="50" relative="1" as="geometry">
            <mxPoint x="-160" y="652" as="sourcePoint" />
            <mxPoint x="143" y="518" as="targetPoint" />
          </mxGeometry>
        </mxCell>
      </root>
    </mxGraphModel>
  </diagram>
</mxfile>
